<?xml version="1.0" standalone="no"?>
<!DOCTYPE svg PUBLIC "-//W3C//DTD SVG 20010904//EN"
 "http://www.w3.org/TR/2001/REC-SVG-20010904/DTD/svg10.dtd">
<svg version="1.0" xmlns="http://www.w3.org/2000/svg"
 width="1024.000000pt" height="1024.000000pt" viewBox="0 0 1024.000000 1024.000000"
 preserveAspectRatio="xMidYMid meet">

<g transform="translate(0.000000,1024.000000) scale(0.100000,-0.100000)"
fill="#000000" stroke="none">
<path d="M3256 8029 c-68 -16 -153 -69 -211 -130 -132 -138 -165 -336 -84
-509 28 -61 94 -129 967 -1002 734 -734 948 -942 987 -961 146 -72 324 -64
447 21 63 44 1854 1845 1889 1900 111 175 86 404 -61 552 -101 102 -220 146
-370 138 -70 -4 -99 -11 -156 -38 -65 -31 -110 -74 -806 -768 l-738 -736 -167
164 c-92 91 -424 420 -738 731 -544 540 -574 567 -648 604 -71 35 -85 38 -175
41 -53 2 -114 -1 -136 -7z"/>
<path d="M3830 5049 c-119 -23 -255 -130 -310 -244 -63 -129 -63 -268 0 -403
29 -63 79 -115 815 -852 l785 -785 784 785 c763 763 786 787 820 860 86 180
47 379 -100 520 -105 101 -234 144 -363 121 -137 -25 -134 -22 -658 -545
l-483 -480 -482 480 c-518 515 -524 521 -647 544 -62 12 -98 11 -161 -1z"/>
</g>
</svg>
